HIERARCHY
ROOT Hips
{
	OFFSET 0.00000 0.00000 0.00000
	CHANNELS 6 Xposition Yposition Zposition Zrotation Yrotation Xrotation 
	JOINT LHipJoint
	{
		OFFSET 0 0 0
		CHANNELS 3 Zrotation Yrotation Xrotation
		JOINT LeftUpLeg
		{
			OFFSET 1.86795 -1.59681 0.65681
			CHANNELS 3 Zrotation Yrotation Xrotation
			JOINT LeftLeg
			{
				OFFSET 2.30491 -6.33268 0.00000
				CHANNELS 3 Zrotation Yrotation Xrotation
				JOINT LeftFoot
				{
					OFFSET 2.46780 -6.78022 0.00000
					CHANNELS 3 Zrotation Yrotation Xrotation
					JOINT LeftToeBase
					{
						OFFSET 0.07897 -0.21698 1.59652
						CHANNELS 3 Zrotation Yrotation Xrotation
						End Site
						{
							OFFSET 0.00000 -0.00000 0.82310
						}
					}
				}
			}
		}
	}
	JOINT RHipJoint
	{
		OFFSET 0 0 0
		CHANNELS 3 Zrotation Yrotation Xrotation
		JOINT RightUpLeg
		{
			OFFSET -1.93650 -1.59681 0.65681
			CHANNELS 3 Zrotation Yrotation Xrotation
			JOINT RightLeg
			{
				OFFSET -2.29410 -6.30299 0.00000
				CHANNELS 3 Zrotation Yrotation Xrotation
				JOINT RightFoot
				{
					OFFSET -2.48738 -6.83403 0.00000
					CHANNELS 3 Zrotation Yrotation Xrotation
					JOINT RightToeBase
					{
						OFFSET -0.08699 -0.23899 1.89395
						CHANNELS 3 Zrotation Yrotation Xrotation
						End Site
						{
							OFFSET -0.00000 -0.00000 0.96904
						}
					}
				}
			}
		}
	}
	JOINT LowerBack
	{
		OFFSET 0 0 0
		CHANNELS 3 Zrotation Yrotation Xrotation
		JOINT Spine
		{
			OFFSET 0.03629 1.99740 -0.07548
			CHANNELS 3 Zrotation Yrotation Xrotation
			JOINT Spine1
			{
				OFFSET 0.03970 1.94298 0.17218
				CHANNELS 3 Zrotation Yrotation Xrotation
				JOINT Neck
				{
					OFFSET 0 0 0
					CHANNELS 3 Zrotation Yrotation Xrotation
					JOINT Neck1
					{
						OFFSET -0.05054 1.79469 0.04241
						CHANNELS 3 Zrotation Yrotation Xrotation
						JOINT Head
						{
							OFFSET 0.05195 1.78475 -0.22133
							CHANNELS 3 Zrotation Yrotation Xrotation
							End Site
							{
								OFFSET 0.02420 1.80711 -0.07950
							}
						}
					}
				}
				JOINT LeftShoulder
				{
					OFFSET 0 0 0
					CHANNELS 3 Zrotation Yrotation Xrotation
					JOINT LeftArm
					{
						OFFSET 2.92134 1.19850 0.36056
						CHANNELS 3 Zrotation Yrotation Xrotation
						JOINT LeftForeArm
						{
							OFFSET 4.84137 -0.00000 0.00000
							CHANNELS 3 Zrotation Yrotation Xrotation
							JOINT LeftHand
							{
								OFFSET 3.24520 -0.00000 -0.00000
								CHANNELS 3 Zrotation Yrotation Xrotation
								JOINT LeftFingerBase
								{
									OFFSET 0 0 0
									CHANNELS 3 Zrotation Yrotation Xrotation
									JOINT LeftHandIndex1
									{
										OFFSET 0.52122 -0.00000 0.00000
										CHANNELS 3 Zrotation Yrotation Xrotation
										End Site
										{
											OFFSET 0.42022 -0.00000 0.00000
										}
									}
								}
								JOINT LThumb
								{
									OFFSET 0 0 0
									CHANNELS 3 Zrotation Yrotation Xrotation
									End Site
									{
										OFFSET 0.42664 -0.00000 0.42664
									}
								}
							}
						}
					}
				}
				JOINT RightShoulder
				{
					OFFSET 0 0 0
					CHANNELS 3 Zrotation Yrotation Xrotation
					JOINT RightArm
					{
						OFFSET -2.84327 1.20795 0.50191
						CHANNELS 3 Zrotation Yrotation Xrotation
						JOINT RightForeArm
						{
							OFFSET -4.72284 -0.00000 0.00000
							CHANNELS 3 Zrotation Yrotation Xrotation
							JOINT RightHand
							{
								OFFSET -3.23459 -0.00000 0.00000
								CHANNELS 3 Zrotation Yrotation Xrotation
								JOINT RightFingerBase
								{
									OFFSET 0 0 0
									CHANNELS 3 Zrotation Yrotation Xrotation
									JOINT RightHandIndex1
									{
										OFFSET -0.30742 -0.00000 0.00000
										CHANNELS 3 Zrotation Yrotation Xrotation
										End Site
										{
											OFFSET -0.24785 -0.00000 0.00000
										}
									}
								}
								JOINT RThumb
								{
									OFFSET 0 0 0
									CHANNELS 3 Zrotation Yrotation Xrotation
									End Site
									{
										OFFSET -0.25163 -0.00000 0.25163
									}
								}
							}
						}
					}
				}
			}
		}
	}
}
MOTION
Frames: 9
Frame Time: .0083333
10.7959 16.7012 -10.7431 1.4155 2.4544 22.5668 0.0000 0.0000 0.0000 -0.2588 -46.7997 -21.9130 0.9384 6.1703 17.2795 -0.8788 23.6513 -27.0913 0.3104 3.5816 9.9026 0.0000 0.0000 0.0000 13.0764 38.8326 -20.1979 -1.3428 -7.3366 20.7166 0.6186 -32.2901 -42.4131 -3.5508 -11.5374 34.1144 -1.1860 -0.3305 5.9646 1.5336 -0.4413 -5.1045 2.3491 -0.0867 -8.7182 -6.1776 1.1558 -9.2220 6.9885 1.1894 21.7108 3.4976 0.7465 8.1231 0.0000 0.0000 0.0000 -40.7402 -61.9181 1.8518 43.2513 -49.8824 -20.8927 -0.0000 -0.0000 57.3599 31.0755 47.2494 23.8713 -7.1250 0.0000 -0.0000 -26.5224 80.7169 -22.0802 0.0000 0.0000 0.0000 62.5118 56.7972 15.0586 -57.0423 55.4689 -31.8920 0.0000 0.0000 26.0523 -48.0002 35.4471 -32.7858 7.1250 -0.0000 -0.0000 -7.5922 16.4423 -9.5000
10.7896 16.6982 -10.7386 0.8700 2.8330 22.5406 0.0000 0.0000 0.0000 0.3720 -46.4458 -22.1782 0.9512 6.2111 17.3980 -0.8424 23.4052 -26.9524 0.3058 3.5554 9.8290 0.0000 0.0000 0.0000 13.7807 39.0377 -19.9803 -1.3287 -7.2996 20.6061 0.5819 -32.4334 -42.7765 -3.5878 -11.5907 34.2989 -0.5986 -0.4157 6.0294 1.6722 -0.4854 -5.1808 2.1736 -0.1380 -8.8398 -6.0526 1.1606 -9.1189 7.0800 1.1490 21.6795 3.5010 0.7448 8.0962 0.0000 -0.0000 0.0000 -40.4299 -61.9137 1.9288 43.5913 -50.0594 -21.1530 -0.0000 -0.0000 57.3164 32.7739 48.0351 25.5809 -7.1250 0.0000 -0.0000 -27.3963 82.0548 -23.5170 0.0000 -0.0000 0.0000 64.6959 55.1712 16.9068 -60.9354 56.5541 -35.1205 0.0000 0.0000 25.9548 -53.4347 36.7171 -38.8704 7.1250 -0.0000 -0.0000 -9.8274 20.7807 -12.8194
10.7828 16.7070 -10.7277 0.8779 3.0280 22.4439 0.0000 0.0000 0.0000 0.2096 -46.3594 -21.9668 0.9467 6.1968 17.3564 -0.7822 23.1539 -27.0080 0.3200 3.6361 10.0552 0.0000 0.0000 0.0000 13.9411 39.0575 -19.7427 -1.3326 -7.3098 20.6365 0.6718 -32.7454 -42.8534 -3.5328 -11.5113 34.0245 -0.5947 -0.4801 6.0823 1.6528 -0.5732 -5.1898 2.1637 -0.1815 -8.8773 -5.9893 1.1134 -9.2111 7.1517 1.0568 21.8035 3.5112 0.7140 8.1611 -0.0000 0.0000 0.0000 -40.3573 -61.8404 2.0863 44.2137 -50.3774 -21.6314 -0.0000 -0.0000 57.2822 33.2675 48.6613 26.2242 -7.1250 0.0000 -0.0000 -30.0292 82.7277 -26.1898 -0.0000 0.0000 0.0000 66.7590 53.4056 18.7252 -64.8722 57.4743 -38.4232 0.0000 0.0000 25.9162 -61.1596 38.0212 -48.2027 7.1250 -0.0000 -0.0000 -13.0263 27.1951 -17.8438
10.7770 16.7145 -10.7143 1.5369 2.9674 22.4875 0.0000 0.0000 0.0000 -0.5483 -46.6876 -21.6701 0.9265 6.1321 17.1681 -0.7449 23.1229 -27.2632 0.3677 3.8948 10.7809 0.0000 0.0000 0.0000 13.2297 38.9542 -19.8115 -1.3524 -7.3618 20.7918 0.3092 -32.1321 -43.4789 -3.7985 -11.8873 35.3346 -1.3249 -0.5429 5.9732 1.4801 -0.7456 -5.2243 2.4132 -0.2264 -8.8378 -5.9871 1.0948 -9.2501 7.1790 1.0230 21.8946 3.5203 0.7010 8.2010 0.0000 0.0000 0.0000 -40.5994 -61.8609 1.9511 44.8569 -50.6982 -22.1280 -0.0000 -0.0000 57.7503 30.1871 48.1679 23.4336 -7.1250 0.0000 -0.0000 -31.9562 80.9904 -26.8669 0.0000 0.0000 0.0000 68.5961 51.4757 20.6423 -69.0462 58.2742 -41.9586 0.0000 0.0000 25.7350 -66.8429 39.2166 -55.9220 7.1250 -0.0000 -0.0000 -15.2094 32.6982 -21.4380
10.7709 16.7136 -10.7021 1.9709 2.9093 22.6216 0.0000 0.0000 0.0000 -0.8528 -47.0328 -21.5321 0.8934 6.0245 16.8555 -0.8294 23.4694 -27.1765 0.3466 3.7826 10.4658 0.0000 0.0000 0.0000 12.6605 39.0315 -20.0485 -1.3847 -7.4455 21.0422 -0.1118 -31.4380 -44.2435 -4.0624 -12.2430 36.5972 -1.8755 -0.5894 5.7835 1.3838 -0.8689 -5.3005 2.6350 -0.2556 -8.7980 -5.9507 1.0938 -9.0986 7.1321 1.0204 21.8092 3.4931 0.6962 8.1455 0.0000 0.0000 0.0000 -41.1381 -61.9120 2.0763 45.2412 -50.8861 -22.4257 -0.0000 -0.0000 57.8951 28.8111 47.6067 22.1070 -7.1250 0.0000 -0.0000 -31.3573 79.9985 -25.7623 0.0000 0.0000 0.0000 70.2457 49.3469 22.5118 -73.4216 58.9356 -45.6940 0.0000 0.0000 25.9636 -70.1193 40.3932 -60.8376 7.1250 -0.0000 -0.0000 -16.1939 36.4405 -23.0978
10.7647 16.7094 -10.6892 1.9933 2.8862 22.6286 0.0000 0.0000 0.0000 -0.7764 -47.2611 -21.2376 0.8552 5.8978 16.4880 -0.9375 23.8231 -26.9115 0.2910 3.4688 9.5867 0.0000 0.0000 0.0000 12.6608 39.1631 -20.1169 -1.4217 -7.5404 21.3265 -0.3042 -31.1399 -44.6211 -4.0815 -12.2681 36.6870 -2.0470 -0.6153 5.7006 1.4054 -0.9178 -5.3360 2.7598 -0.2679 -8.7829 -5.9332 1.0949 -9.0316 7.1035 1.0222 21.7859 3.4789 0.6947 8.1257 -0.0000 0.0000 0.0000 -41.6752 -61.9052 2.3692 45.4159 -50.9706 -22.5613 -0.0000 -0.0000 57.5209 30.1887 47.6893 23.2777 -7.1250 0.0000 -0.0000 -29.7612 80.6522 -24.7925 -0.0000 0.0000 0.0000 71.7006 47.1646 24.2700 -77.5980 59.4108 -49.2808 0.0000 0.0000 26.8499 -74.7226 41.7766 -67.7070 7.1250 -0.0000 -0.0000 -17.6700 41.5118 -25.4195
10.7598 16.7084 -10.6788 1.9211 2.8898 22.5875 0.0000 0.0000 0.0000 -0.7625 -47.2029 -20.9673 0.8258 5.7979 16.1993 -0.8979 23.6664 -26.9587 0.3421 3.7586 10.3984 0.0000 0.0000 0.0000 12.8113 39.2383 -20.1005 -1.4507 -7.6135 21.5460 -0.6283 -30.5650 -45.1715 -4.1943 -12.4146 37.2149 -2.0927 -0.6241 5.6996 1.4467 -0.9310 -5.3389 2.8312 -0.2698 -8.7837 -5.9315 1.0695 -9.2307 7.0844 0.9942 21.9680 3.4779 0.6819 8.2258 0.0000 -0.0000 0.0000 -42.2360 -61.9457 2.5661 45.5825 -51.0507 -22.6908 -0.0000 -0.0000 57.2117 31.3319 47.8599 24.2948 -7.1250 0.0000 -0.0000 -28.8546 81.2857 -24.3701 0.0000 -0.0000 0.0000 72.8805 45.0579 25.7270 -81.1709 59.7034 -52.3614 0.0000 0.0000 28.0314 -78.4236 43.2916 -73.3677 7.1250 -0.0000 -0.0000 -18.5239 45.8116 -26.6349
10.7521 16.7116 -10.6767 2.2136 2.8473 22.7754 0.0000 0.0000 0.0000 -0.9369 -47.1331 -21.2030 0.8149 5.7603 16.0905 -0.8662 23.5746 -27.0586 0.3878 3.9988 11.0732 0.0000 0.0000 0.0000 12.3550 39.1322 -20.4569 -1.4633 -7.6451 21.6412 -0.9259 -29.9308 -45.5636 -4.3750 -12.6433 38.0475 -2.5191 -0.6249 5.6398 1.3737 -0.9792 -5.4744 3.0014 -0.2654 -8.8900 -5.8381 1.0020 -9.2746 7.0149 0.8975 22.0660 3.4330 0.6375 8.2755 -0.0000 0.0000 0.0000 -42.9689 -61.9260 3.0343 45.7471 -51.1293 -22.8189 -0.0000 -0.0000 56.9695 31.7413 47.9171 24.6607 -7.1250 0.0000 -0.0000 -28.4842 81.5072 -24.1712 -0.0000 0.0000 0.0000 73.9781 42.8129 26.9122 -84.0763 59.8670 -54.8722 0.0000 0.0000 29.4816 -80.2537 45.0250 -76.3524 7.1250 -0.0000 -0.0000 -18.1128 48.4056 -25.9225
10.7441 16.7145 -10.6752 2.5798 2.8290 23.0061 0.0000 0.0000 0.0000 -1.1050 -47.1457 -21.5478 0.8150 5.7607 16.0915 -0.8613 23.5481 -27.0512 0.3974 4.0476 11.2107 0.0000 0.0000 0.0000 11.8507 38.7535 -20.9075 -1.4667 -7.6535 21.6666 -0.7278 -30.1253 -45.0289 -4.2719 -12.5137 37.5744 -3.0184 -0.6695 5.5785 1.2946 -1.0951 -5.6735 3.2161 -0.2865 -9.0594 -5.7780 0.9802 -9.0218 6.9927 0.8527 21.9454 3.4040 0.6159 8.1922 -0.0000 0.0000 0.0000 -43.8021 -61.7445 3.5038 45.9264 -51.2144 -22.9587 -0.0000 -0.0000 57.0107 31.8748 48.1059 24.8386 -7.1250 0.0000 -0.0000 -29.1943 81.7005 -24.8906 -0.0000 0.0000 0.0000 75.0947 40.4845 28.2126 -85.9007 59.9364 -56.4506 0.0000 0.0000 31.9071 -86.0679 45.8391 -84.5269 7.1250 -0.0000 -0.0000 -20.3594 53.9036 -28.7794
